<?xml version="1.0" encoding="UTF-8"?>
<svg version="1.1" viewBox="0 0 2048 1920" width="516" height="484" xmlns="http://www.w3.org/2000/svg">
<path transform="translate(1256,672)" d="m0 0h38l24 2 32 5 28 7 21 7 24 10 25 12 22 13 11 8 16 12 14 12 8 7 22 22 18 22 10 14 10 16 9 16 13 27 10 27 8 31 5 29 2 23v35l-2 23-5 30-8 31-11 29-13 27-12 21-14 20-18 22-12 13-9 9-2 3-4-2-9-11-12-14-14-12-13-9-22-12-15-5-12-3-24-3-42-1-1-1-4-23-7-24-9-21-9-16-13-18-9-10-11-12-11-9-14-10-19-11-16-7-13-5-2-1-2 26-5 57 17 2 17 5 17 9 10 8 9 8 9 11 8 14 5 12 3 11 1 8v24l-3 14-5 13-6 11-1 4 5 2 28 17 29 17 15 9 26 16 22 13 28 17 27 16 23 14 29 17 8 5-1 5-13 22-10 16h-4l-26-15-20-12-23-14-25-15-29-17-56-34-14-8-28-17-20-12-11-7-5 1-18 6-13 2h-21l-15-3-17-6-16-9-13-12-7-7-9-14-6-12-5-17-1-7v-24l3-14 6-16 8-14 12-14 13-11 9-5 2-12 7-80 1-12-107-1-5-11-8-16-9-16-12-16-8-10-14-15-10-9-18-13-15-9-7-4 1-6 10-22 11-20 16-24 14-18 11-13 23-23 11-9 16-13 20-14 26-15 28-13 24-9 19-6 27-6 32-5zm-58 467-15 3-14 7-10 8-7 9-6 12-4 14v15l3 11 4 10 7 10 8 8 14 8 12 4 5 1h18l16-5 11-6 12-11 7-11 5-14 1-7v-12l-2-10-5-12-7-11-10-9-12-7-14-4-7-1z" fill="#FEBF0B"/>
<path transform="translate(447,1037)" d="m0 0h25l12 4 13 7 11 10 9 14 5 13 1 5v20l-4 14-7 13-11 12-6 4 4 7 9 11 10 14 14 19 24 32 14 19 13 18 7 9 4 4v45l14-2 108-19 92-16 2-1 3-31 9-111 3-32 20 1 29 2 2 1-2 27-13 155-6 76-6 67-4 47-3 2-43-4-5-2 2-28 10-117-102 18-83 14-23 4h-4v110l-2 1h-51l-1-2v-187l-3-7-16-21-10-14-14-18-14-19-7-10-5 1-44 17-29 11-14 6-3-1-13-35-4-8 2-4 71-27 6-2-5-9-8-7-10-7-10-9-7-11-4-8-3-10-1-13 2-14 4-11 6-11 11-12 14-9 10-4zm5 39-8 4-6 7-3 8v11l5 10 7 6 9 3h8l9-4 5-4 4-7 2-6v-7l-3-9-7-8-8-4z" fill="#02B0F4"/>
<path transform="translate(1170,1007)" d="m0 0h21l24 4 2 2v4h-2l-2 26-5 57 17 2 17 5 17 9 10 8 9 8 9 11 8 14 5 12 3 11 1 8v24l-3 14-5 13-6 11-1 4 5 2 28 17 29 17 15 9 26 16 22 13 28 17 27 16 23 14 29 17 8 5-1 5-13 22-10 16h-4l-26-15-20-12-23-14-25-15-29-17-56-34-14-8-28-17-20-12-11-7-5 1-18 6-13 2h-21l-15-3-17-6-16-9-13-12-7-7-9-14-6-12-5-17-1-7v-24l3-14 6-16 8-14 12-14 13-11 9-5 2-12 7-80 2-12zm28 132-15 3-14 7-10 8-7 9-6 12-4 14v15l3 11 4 10 7 10 8 8 14 8 12 4 5 1h18l16-5 11-6 12-11 7-11 5-14 1-7v-12l-2-10-5-12-7-11-10-9-12-7-14-4-7-1z" fill="#02B0F4"/>
<path transform="translate(740,916)" d="m0 0 45 2 7 2v16l-4 74-1 12h11l29 2 2 1-3 50-3 1-140-10-54-4-3-1v116l-1 1h-49v-212l1-1 49 1v32l-1 13 24 1 75 5 10 1 1-24 3-57 1-20z" fill="#02B0F4"/>
<path transform="translate(858,863)" d="m0 0h8l17 4 13 9 7 8 6 11 3 12v11l-2 8 9 10 7 8 5 5v2h2l7 8 16 17 7 8 12 13 11 11 7 8 6 5 4 1 1 2v182h-60l-1-166-11-11-7-8-24-26-11-11-7-8-8-8-5-6h-13l-15-4-12-8-7-7-6-11-4-15v-8l4-16 7-12 8-8 10-6z" fill="#02B0F4"/>
<path transform="translate(1025,1196)" d="m0 0h64l1 156 15 8 11 9 8 9 8 14 4 11 2 8v23l-5 17-8 14-11 12-7 6-14 8-13 4-5 1h-24l-16-5-12-6-11-9-8-9-9-16-5-16v-25l5-17 7-12 8-10 10-9 3-2 1-4v-159zm31 191-10 4-10 9-6 12-1 4v13l4 10 6 8 7 6 10 4 11 1 13-4 8-6 7-8 4-11v-13l-4-11-6-8-6-5-8-4-4-1z" fill="#02B0F4"/>
<path transform="translate(361,1256)" d="m0 0h26l18 4 16 7 11 7 11 9 11 12 10 16 7 19 2 10 1 18-2 18-6 18-8 15-8 10-9 10-15 11-17 8-13 4-12 2h-21l-18-4-16-7-12-7-14-12-10-12-11-21-5-16-1-7v-26l4-17 5-12 8-15 9-11 7-7 14-10 16-8 16-5zm4 39-13 4-10 5-10 9-7 8-7 14-3 12v17l4 13 6 12 9 10 7 6 12 6 9 3 5 1h16l13-4 12-6 13-11 7-11 5-13 1-5v-21l-5-15-6-10-9-10-11-7-12-5-7-2z" fill="#02B0F4"/>
<path transform="translate(710,658)" d="m0 0 12 6 24 14 16 9 25 15 24 14 29 17 28 17 26 15 17 10 2 2-1 5-14 24-10 17-2 3-5-2-52-30-25-15-28-16-24-14-54-32-14-8-2-4 10-16 8-14z" fill="#FEBF0B"/>
<path transform="translate(1499,418)" d="m0 0 26 9 26 10-1 6-20 55-18 49-14 37-24 66-1 2-5-1-30-11-15-6-3-2 1-6 15-40 18-50 15-40 11-30 17-46z" fill="#FEBF0B"/>
<path transform="translate(1077,418)" d="m0 0 4 1 17 46 18 49 20 53 13 35 7 19v4l-29 11-20 8-4-1-8-20-11-30-15-40-18-49-16-43-7-19v-5l12-5 32-12z" fill="#FEBF0B"/>
<path transform="translate(1619,1243)" d="m0 0 4 1 8 8 8 7 15 14 17 16 10 10 8 7 12 12 8 7 8 8 8 7 15 15 8 7 11 11 8 7 5 4 2 3-1 4-11 11-7 8-14 14-4 5-4-2-10-10-8-7-10-10-8-7-17-16-8-8-8-7-13-13-8-7-7-7-8-7-9-9-8-7-15-15-8-7-5-7 7-9 10-10 7-8 9-9z" fill="#FEBF0B"/>
<path transform="translate(1782,655)" d="m0 0 5 5 9 15 10 15 7 11-1 4-17 10-31 20-22 14-21 13-22 14-41 26-18 11h-4l-14-23-12-19-2-3 1-4 16-9 21-14 16-10 17-11 18-11 17-11 16-10 20-13 23-14z" fill="#FEBF0B"/>
<path transform="translate(1683 1e3)" d="m0 0h195l1 1v54l-1 1h-195l-1-10v-43z" fill="#FEBF0B"/>
<path transform="translate(1244,1359)" d="m0 0h50v133l-2 1h-47l-1-1z" fill="#02B0F4"/>
</svg>
